<?xml version="1.0" encoding="UTF-8" standalone="no"?>
<svg
   width="6.3499999mm"
   height="6.348mm"
   version="1.1"
   viewBox="0 0 6.35 6.348"
   id="svg1"
   xmlns="http://www.w3.org/2000/svg"
   xmlns:svg="http://www.w3.org/2000/svg">
  <defs
     id="defs1" />
  <g
     transform="translate(-78.37,-127.5)"
     id="g1">
    <path
       d="m 84.67,130.6 -0.2665,-0.165 a 3.632,3.632 0 0 0 -0.0075,-0.0777 l 0.229,-0.2135 a 0.09215,0.09215 0 0 0 -0.03053,-0.1529 l -0.2928,-0.1095 a 2.248,2.248 0 0 0 -0.02302,-0.0756 l 0.1827,-0.2537 a 0.0916,0.0916 0 0 0 -0.05972,-0.1441 l -0.3086,-0.0501 a 2.476,2.476 0 0 0 -0.03723,-0.0694 l 0.1296,-0.2847 a 0.09094,0.09094 0 0 0 -0.0073,-0.0889 0.09223,0.09223 0 0 0 -0.07953,-0.0407 l -0.3134,0.011 a 1.784,1.784 0 0 0 -0.04956,-0.06 l 0.07205,-0.3051 a 0.09186,0.09186 0 0 0 -0.1103,-0.1104 l -0.3051,0.0721 a 3.709,3.709 0 0 0 -0.06027,-0.0496 l 0.01098,-0.3134 a 0.09107,0.09107 0 0 0 -0.1296,-0.0868 l -0.2847,0.1299 c -0.02307,-0.0126 -0.04609,-0.0252 -0.0694,-0.0372 l -0.05035,-0.3088 a 0.09215,0.09215 0 0 0 -0.1441,-0.0597 l -0.2539,0.1827 a 2.245,2.245 0 0 0 -0.07554,-0.0228 l -0.1095,-0.2928 a 0.09215,0.09215 0 0 0 -0.153,-0.0305 l -0.2135,0.2293 a 2.459,2.459 0 0 0 -0.07768,-0.008 l -0.165,-0.2665 a 0.0916,0.0916 0 0 0 -0.1559,0 l -0.165,0.2665 a 3.635,3.635 0 0 0 -0.07768,0.008 l -0.2138,-0.2293 a 0.0916,0.0916 0 0 0 -0.1529,0.0305 l -0.1096,0.2928 c -0.02545,0.007 -0.05035,0.015 -0.07554,0.0228 l -0.2537,-0.1826 a 0.09215,0.09215 0 0 0 -0.1441,0.0597 l -0.05035,0.3088 a 2.476,2.476 0 0 0 -0.06937,0.0372 l -0.2847,-0.1299 a 0.0916,0.0916 0 0 0 -0.1296,0.0868 l 0.01101,0.3134 a 2.112,2.112 0 0 0 -0.06027,0.0496 l -0.3051,-0.0721 a 0.09186,0.09186 0 0 0 -0.1104,0.1104 l 0.07178,0.3051 c -0.01662,0.0198 -0.0332,0.0399 -0.04929,0.06 l -0.3134,-0.011 a 0.0916,0.0916 0 0 0 -0.08678,0.1296 l 0.1299,0.2847 a 2.425,2.425 0 0 0 -0.03723,0.0694 l -0.3086,0.0501 a 0.09215,0.09215 0 0 0 -0.05974,0.1441 l 0.1827,0.2536 a 3.52,3.52 0 0 0 -0.02302,0.0755 l -0.2928,0.1095 a 0.09215,0.09215 0 0 0 -0.03056,0.153 l 0.229,0.2135 a 2.459,2.459 0 0 0 -0.0075,0.0777 l -0.2665,0.165 a 0.09107,0.09107 0 0 0 0,0.1559 l 0.2665,0.165 c 0.0021,0.026 0.0048,0.052 0.0075,0.0777 l -0.229,0.2138 a 0.0916,0.0916 0 0 0 0.03056,0.1529 l 0.2928,0.1096 c 0.0072,0.0255 0.015,0.0506 0.02302,0.0755 l -0.1827,0.2537 a 0.09133,0.09133 0 0 0 0.06001,0.1441 l 0.3086,0.0501 c 0.01207,0.0233 0.02439,0.0463 0.03725,0.0694 l -0.1299,0.2847 a 0.0916,0.0916 0 0 0 0.08678,0.1296 l 0.3131,-0.011 c 0.01635,0.0203 0.03268,0.0404 0.04956,0.0602 l -0.07178,0.3054 a 0.0916,0.0916 0 0 0 0.1104,0.1101 l 0.3051,-0.0718 c 0.01984,0.0169 0.03995,0.0332 0.0603,0.0493 l -0.01098,0.3134 a 0.09107,0.09107 0 0 0 0.1296,0.0865 l 0.2847,-0.1296 c 0.02302,0.0129 0.04606,0.0252 0.06937,0.0372 l 0.05035,0.3086 a 0.09215,0.09215 0 0 0 0.1441,0.06 l 0.2537,-0.1827 a 2.46,2.46 0 0 0 0.07554,0.023 l 0.1095,0.2928 a 0.09133,0.09133 0 0 0 0.153,0.0305 l 0.2138,-0.229 c 0.02572,0.003 0.0517,0.005 0.07768,0.008 l 0.165,0.2665 a 0.09186,0.09186 0 0 0 0.1559,0 l 0.165,-0.2665 c 0.02598,-0.002 0.05196,-0.005 0.07768,-0.008 l 0.2135,0.229 a 0.09215,0.09215 0 0 0 0.1529,-0.0305 l 0.1096,-0.2928 a 2.239,2.239 0 0 0 0.07554,-0.023 l 0.2537,0.1827 a 0.09133,0.09133 0 0 0 0.1441,-0.06 l 0.05035,-0.3086 c 0.02328,-0.0121 0.04633,-0.0246 0.06937,-0.0372 l 0.2847,0.1296 a 0.09186,0.09186 0 0 0 0.1296,-0.0865 l -0.01098,-0.3134 a 1.78,1.78 0 0 0 0.05998,-0.0493 l 0.3051,0.0718 a 0.09186,0.09186 0 0 0 0.1104,-0.1101 l -0.07178,-0.3054 c 0.01662,-0.0198 0.0332,-0.0399 0.04929,-0.0603 l 0.3134,0.011 a 0.09107,0.09107 0 0 0 0.08678,-0.1296 l -0.1296,-0.2847 c 0.01257,-0.0231 0.02516,-0.0461 0.03723,-0.0694 l 0.3086,-0.0501 a 0.09215,0.09215 0 0 0 0.05974,-0.1441 l -0.1827,-0.2537 0.02302,-0.0755 0.2928,-0.1095 a 0.0916,0.0916 0 0 0 0.03053,-0.153 l -0.229,-0.2138 c 0.0027,-0.0257 0.0053,-0.0517 0.0075,-0.0777 l 0.2665,-0.165 a 0.09107,0.09107 0 0 0 0,-0.1559 z m -1.784,2.211 a 0.1889,0.1889 0 0 1 0.079,-0.3694 0.18890795,0.18890795 0 1 1 -0.0793,0.3694 z m -0.09054,-0.6123 a 0.1717,0.1717 0 0 0 -0.2041,0.1323 l -0.09454,0.4415 c -0.292,0.1326 -0.6161,0.2062 -0.9576,0.2062 a 2.312,2.312 0 0 1 -0.9777,-0.2154 l -0.09456,-0.4414 a 0.1714,0.1714 0 0 0 -0.2041,-0.132 l -0.3897,0.0836 a 2.308,2.308 0 0 1 -0.2014,-0.2376 h 1.896 c 0.02143,0 0.03588,-0.004 0.03588,-0.0233 v -0.671 c 0,-0.0196 -0.01418,-0.0233 -0.03588,-0.0233 h -0.5547 v -0.4254 h 0.6 c 0.05464,0 0.2928,0.0155 0.3688,0.3198 0.02384,0.0935 0.07607,0.398 0.112,0.4955 0.03561,0.1093 0.1808,0.3276 0.3356,0.3276 h 0.945 a 0.1982,0.1982 0 0 0 0.03429,-0.003 2.325,2.325 0 0 1 -0.2148,0.252 z m -2.623,0.6032 a 0.18890795,0.18890795 0 1 1 -0.0793,-0.3694 0.18890795,0.18890795 0 0 1 0.0793,0.3694 z m -0.7195,-2.918 a 0.1888,0.1888 0 1 1 -0.345,0.1532 0.1888,0.1888 0 0 1 0.345,-0.1532 z m -0.221,0.5242 0.4061,-0.1806 a 0.172,0.172 0 0 0 0.08731,-0.2272 l -0.08356,-0.1891 h 0.3289 v 1.482 h -0.6635 a 2.322,2.322 0 0 1 -0.07498,-0.8858 z m 1.782,-0.1438 v -0.4369 h 0.7832 c 0.04048,0 0.2855,0.0469 0.2855,0.2301 0,0.1521 -0.188,0.2068 -0.3426,0.2068 z m 2.846,0.3932 c 0,0.0579 -0.0021,0.1154 -0.0064,0.1722 h -0.2381 c -0.02381,0 -0.03347,0.0155 -0.03347,0.0391 v 0.1093 c 0,0.2574 -0.1452,0.3134 -0.2724,0.3276 -0.1211,0.0137 -0.2553,-0.0506 -0.2719,-0.1248 -0.07154,-0.4018 -0.1904,-0.4878 -0.3785,-0.6359 0.2333,-0.1481 0.476,-0.3667 0.476,-0.6592 0,-0.3158 -0.2167,-0.5148 -0.3643,-0.6126 -0.207,-0.1366 -0.4363,-0.1639 -0.4982,-0.1639 h -2.462 a 2.319,2.319 0 0 1 1.298,-0.7329 l 0.2904,0.3045 a 0.1714,0.1714 0 0 0 0.2429,0.006 l 0.3246,-0.3107 a 2.322,2.322 0 0 1 1.589,1.131 l -0.2223,0.5022 a 0.1725,0.1725 0 0 0 0.08731,0.2271 l 0.428,0.1902 c 0.0075,0.0761 0.01124,0.1527 0.01124,0.2306 z m -2.461,-2.54 a 0.18860181,0.18860181 0 1 1 0.2604,0.2729 0.1888,0.1888 0 0 1 -0.2604,-0.2729 z m 2.206,1.775 a 0.188,0.188 0 0 1 0.2486,-0.0959 0.1888,0.1888 0 1 1 -0.2488,0.0962 z"
       stroke-width="0.2646"
       id="path1" />
  </g>
</svg>
