<?xml version="1.0" encoding="UTF-8" standalone="no"?>
<!-- Created with Inkscape (http://www.inkscape.org/) -->

<svg
   width="6.3499222mm"
   height="6.3484268mm"
   viewBox="0 0 6.3499222 6.3484268"
   version="1.1"
   id="svg1"
   xmlns:inkscape="http://www.inkscape.org/namespaces/inkscape"
   xmlns:sodipodi="http://sodipodi.sourceforge.net/DTD/sodipodi-0.dtd"
   xmlns="http://www.w3.org/2000/svg"
   xmlns:svg="http://www.w3.org/2000/svg">
  <sodipodi:namedview
     id="namedview1"
     pagecolor="#ffffff"
     bordercolor="#000000"
     borderopacity="0.25"
     inkscape:showpageshadow="2"
     inkscape:pageopacity="0.0"
     inkscape:pagecheckerboard="0"
     inkscape:deskcolor="#d1d1d1"
     inkscape:document-units="mm"
     showgrid="false" />
  <defs
     id="defs1" />
  <g
     inkscape:label="Слой 1"
     inkscape:groupmode="layer"
     id="layer1"
     transform="translate(-78.36622,-127.50364)">
    <title
       id="title1">Rust</title>
    <path
       d="m 84.672472,130.59956 -0.266514,-0.16499 a 3.6318825,3.6318825 0 0 0 -0.0075,-0.0777 l 0.229025,-0.21349 a 0.09215437,0.09215437 0 0 0 -0.03053,-0.15293 l -0.292788,-0.10953 a 2.2478471,2.2478471 0 0 0 -0.02302,-0.0756 l 0.182668,-0.25366 a 0.09159875,0.09159875 0 0 0 -0.05972,-0.14409 l -0.308583,-0.0501 a 2.4758121,2.4758121 0 0 0 -0.03723,-0.0694 l 0.129646,-0.28472 a 0.09093729,0.09093729 0 0 0 -0.0073,-0.0889 0.09223375,0.09223375 0 0 0 -0.07953,-0.0407 l -0.313399,0.011 a 1.7844558,1.7844558 0 0 0 -0.04956,-0.06 l 0.07205,-0.30507 a 0.09186333,0.09186333 0 0 0 -0.110331,-0.11038 l -0.305118,0.0721 a 3.7090085,3.7090085 0 0 0 -0.06027,-0.0496 l 0.01098,-0.3134 a 0.09106958,0.09106958 0 0 0 -0.129645,-0.0868 l -0.284692,0.12991 c -0.02307,-0.0126 -0.04609,-0.0252 -0.0694,-0.0372 l -0.05035,-0.30884 a 0.09215437,0.09215437 0 0 0 -0.144119,-0.0597 l -0.253921,0.18269 a 2.2454394,2.2454394 0 0 0 -0.07554,-0.0228 l -0.109538,-0.29279 a 0.09215437,0.09215437 0 0 0 -0.152955,-0.0305 l -0.213492,0.22929 a 2.4589317,2.4589317 0 0 0 -0.07768,-0.008 l -0.164994,-0.26654 a 0.09159875,0.09159875 0 0 0 -0.155893,0 l -0.164994,0.26652 a 3.6349252,3.6349252 0 0 0 -0.07768,0.008 l -0.213757,-0.22929 a 0.09159875,0.09159875 0 0 0 -0.152929,0.0305 l -0.109564,0.29276 c -0.02545,0.007 -0.05035,0.015 -0.07554,0.0228 l -0.253656,-0.18264 a 0.09215437,0.09215437 0 0 0 -0.144119,0.0597 l -0.05035,0.30882 a 2.4758121,2.4758121 0 0 0 -0.06937,0.0372 l -0.284744,-0.12991 a 0.09159875,0.09159875 0 0 0 -0.129646,0.0868 l 0.01101,0.3134 a 2.1120629,2.1120629 0 0 0 -0.06027,0.0496 l -0.305091,-0.0721 a 0.09186333,0.09186333 0 0 0 -0.110357,0.11036 l 0.07178,0.30509 c -0.01662,0.0198 -0.0332,0.0399 -0.04929,0.06 l -0.313399,-0.011 a 0.09159875,0.09159875 0 0 0 -0.08678,0.12964 l 0.12991,0.28472 a 2.4254354,2.4254354 0 0 0 -0.03723,0.0694 l -0.308558,0.0501 a 0.09215437,0.09215437 0 0 0 -0.05974,0.14409 l 0.182668,0.25365 a 3.5197521,3.5197521 0 0 0 -0.02302,0.0755 l -0.292761,0.10954 a 0.09215437,0.09215437 0 0 0 -0.03056,0.15296 l 0.229024,0.21351 a 2.4589317,2.4589317 0 0 0 -0.0075,0.0777 l -0.266515,0.16499 a 0.09106958,0.09106958 0 0 0 0,0.1559 l 0.266515,0.16499 c 0.0021,0.026 0.0048,0.052 0.0075,0.0777 l -0.229024,0.21376 a 0.09159875,0.09159875 0 0 0 0.03056,0.15293 l 0.292761,0.10956 c 0.0072,0.0255 0.015,0.0506 0.02302,0.0755 l -0.182668,0.25366 a 0.09133417,0.09133417 0 0 0 0.06001,0.14412 l 0.308557,0.0501 c 0.01207,0.0233 0.02439,0.0463 0.03725,0.0694 l -0.12991,0.28474 a 0.09159875,0.09159875 0 0 0 0.08678,0.12965 l 0.313108,-0.011 c 0.01635,0.0203 0.03268,0.0404 0.04956,0.0602 l -0.07178,0.30536 a 0.09159875,0.09159875 0 0 0 0.110358,0.11009 l 0.305065,-0.0718 c 0.01984,0.0169 0.03995,0.0332 0.0603,0.0493 l -0.01098,0.3134 a 0.09106958,0.09106958 0 0 0 0.129645,0.0865 l 0.284718,-0.12965 c 0.02302,0.0129 0.04606,0.0252 0.06937,0.0372 l 0.05035,0.30856 a 0.09215437,0.09215437 0 0 0 0.144118,0.06 l 0.253656,-0.18267 a 2.4603604,2.4603604 0 0 0 0.07554,0.023 l 0.109538,0.29279 a 0.09133417,0.09133417 0 0 0 0.152956,0.0305 l 0.213757,-0.22902 c 0.02572,0.003 0.0517,0.005 0.07768,0.008 l 0.164994,0.26652 a 0.09186333,0.09186333 0 0 0 0.155893,0 l 0.164993,-0.26652 c 0.02598,-0.002 0.05196,-0.005 0.07768,-0.008 l 0.213492,0.22902 a 0.09215437,0.09215437 0 0 0 0.15293,-0.0305 l 0.109564,-0.29279 a 2.2390629,2.2390629 0 0 0 0.07554,-0.023 l 0.253656,0.18267 a 0.09133417,0.09133417 0 0 0 0.144118,-0.06 l 0.05035,-0.30855 c 0.02328,-0.0121 0.04633,-0.0246 0.06937,-0.0372 l 0.284745,0.12965 a 0.09186333,0.09186333 0 0 0 0.129646,-0.0865 l -0.01098,-0.3134 a 1.7797727,1.7797727 0 0 0 0.05998,-0.0493 l 0.305091,0.0718 a 0.09186333,0.09186333 0 0 0 0.110358,-0.11007 l -0.07178,-0.30538 c 0.01662,-0.0198 0.0332,-0.0399 0.04929,-0.0603 l 0.313399,0.011 a 0.09106958,0.09106958 0 0 0 0.08678,-0.12965 l -0.129646,-0.28469 c 0.01257,-0.0231 0.02516,-0.0461 0.03723,-0.0694 l 0.308557,-0.0501 a 0.09215437,0.09215437 0 0 0 0.05974,-0.14412 l -0.182668,-0.25366 0.02302,-0.0755 0.292788,-0.10954 a 0.09159875,0.09159875 0 0 0 0.03053,-0.15295 l -0.229024,-0.21376 c 0.0027,-0.0257 0.0053,-0.0517 0.0075,-0.0777 l 0.266513,-0.16499 a 0.09106958,0.09106958 0 0 0 0,-0.1559 z m -1.783635,2.21062 a 0.18885958,0.18885958 0 0 1 0.079,-0.36936 0.1889125,0.1889125 0 1 1 -0.0793,0.36936 z m -0.09054,-0.6123 a 0.17171458,0.17171458 0 0 0 -0.204126,0.13229 l -0.09454,0.44146 c -0.291968,0.13256 -0.616083,0.20624 -0.957607,0.20624 a 2.3116117,2.3116117 0 0 1 -0.977662,-0.21537 l -0.09456,-0.44143 a 0.17145,0.17145 0 0 0 -0.204099,-0.13203 l -0.389732,0.0836 a 2.30759,2.30759 0 0 1 -0.201427,-0.2376 h 1.896428 c 0.02143,0 0.03588,-0.004 0.03588,-0.0233 v -0.67098 c 0,-0.0196 -0.01418,-0.0233 -0.03588,-0.0233 h -0.554726 v -0.42537 h 0.599996 c 0.05464,0 0.292761,0.0155 0.368829,0.31983 0.02384,0.0935 0.07607,0.39803 0.111972,0.49553 0.03561,0.10928 0.180789,0.32758 0.335624,0.32758 h 0.944985 a 0.19822583,0.19822583 0 0 0 0.03429,-0.003 2.3249996,2.3249996 0 0 1 -0.214815,0.25204 z m -2.623132,0.6032 a 0.1889125,0.1889125 0 1 1 -0.0793,-0.36936 0.1889125,0.1889125 0 0 1 0.0793,0.36936 z m -0.719455,-2.91751 a 0.18883312,0.18883312 0 1 1 -0.345016,0.15322 0.18883312,0.18883312 0 0 1 0.345016,-0.15319 z m -0.22098,0.52422 0.406056,-0.18055 a 0.17197917,0.17197917 0 0 0 0.08731,-0.22715 l -0.08356,-0.18909 h 0.32893 v 1.48232 h -0.663495 a 2.3217981,2.3217981 0 0 1 -0.07498,-0.88582 z m 1.781784,-0.14385 v -0.43688 h 0.783193 c 0.04048,0 0.285538,0.0469 0.285538,0.2301 0,0.15214 -0.188039,0.20678 -0.342582,0.20678 z m 2.846229,0.39322 c 0,0.0579 -0.0021,0.11544 -0.0064,0.17224 h -0.238125 c -0.02381,0 -0.03347,0.0155 -0.03347,0.0391 v 0.10928 c 0,0.25744 -0.145177,0.31342 -0.272415,0.3276 -0.121073,0.0137 -0.25527,-0.0506 -0.271859,-0.1248 -0.07154,-0.4018 -0.190447,-0.48779 -0.378486,-0.6359 0.233283,-0.14814 0.475985,-0.36671 0.475985,-0.65921 0,-0.31581 -0.216694,-0.51483 -0.364305,-0.61259 -0.207036,-0.1366 -0.436324,-0.16391 -0.49821,-0.16391 H 79.81306 a 2.3190994,2.3190994 0 0 1 1.29831,-0.73287 l 0.290354,0.30454 a 0.17145,0.17145 0 0 0 0.242941,0.006 l 0.324643,-0.31071 a 2.3217981,2.3217981 0 0 1 1.588665,1.13141 l -0.22233,0.50224 a 0.17250833,0.17250833 0 0 0 0.08731,0.22714 l 0.428043,0.19018 c 0.0075,0.0761 0.01124,0.15267 0.01124,0.23064 z m -2.460784,-2.53981 a 0.18860053,0.18860053 0 1 1 0.26035,0.27294 0.18883312,0.18883312 0 0 1 -0.26035,-0.27294 z m 2.206334,1.77535 a 0.18803937,0.18803937 0 0 1 0.248576,-0.0959 0.18883312,0.18883312 0 1 1 -0.248841,0.0962 z"
       id="path1"
       style="stroke-width:0.264583"
       inkscape:export-filename="path1.svg"
       inkscape:export-xdpi="96.001221"
       inkscape:export-ydpi="96.001221" />
  </g>
</svg>
