<?xml version="1.0" encoding="UTF-8" standalone="no"?>
<svg
   width="6.3499999mm"
   height="6.3169994mm"
   version="1.1"
   viewBox="0 0 6.35 6.3169995"
   id="svg1"
   xmlns="http://www.w3.org/2000/svg"
   xmlns:svg="http://www.w3.org/2000/svg">
  <defs
     id="defs1" />
  <g
     transform="translate(-68.91,-126.9)"
     id="g1">
    <path
       d="m 75.04,127.5 -1.307,-0.6289 a 0.3953,0.3953 0 0 0 -0.4511,0.0767 l -2.503,2.283 -1.09,-0.8276 a 0.2643,0.2643 0 0 0 -0.3376,0.0151 l -0.3498,0.318 a 0.2646,0.2646 0 0 0 -2.65e-4,0.3913 l 0.9454,0.8625 -0.9454,0.8625 a 0.2646,0.2646 0 0 0 2.65e-4,0.3913 l 0.35,0.3178 a 0.2643,0.2643 0 0 0 0.3376,0.0151 l 1.09,-0.8276 2.503,2.283 a 0.3948,0.3948 0 0 0 0.4508,0.0767 l 1.308,-0.6289 a 0.3969,0.3969 0 0 0 0.2244,-0.3577 v -4.265 a 0.3969,0.3969 0 0 0 -0.2249,-0.3577 z m -1.362,3.932 -1.899,-1.441 1.899,-1.441 z"
       stroke-width="0.2646"
       id="path1" />
  </g>
</svg>
